<mxfile host="app.diagrams.net" modified="2021-05-08T17:12:54.446Z" agent="5.0 (Windows NT 10.0; Win64; x64) AppleWebKit/537.36 (KHTML, like Gecko) Chrome/90.0.4430.85 Safari/537.36" etag="LoPsBKoUzj5dJg3G_4nD" version="14.5.3" type="github">
  <diagram id="6a731a19-8d31-9384-78a2-239565b7b9f0" name="Page-1">
    <mxGraphModel dx="2591" dy="794" grid="1" gridSize="10" guides="1" tooltips="1" connect="1" arrows="1" fold="1" page="1" pageScale="1" pageWidth="1169" pageHeight="827" background="#ffffff" math="0" shadow="0">
      <root>
        <mxCell id="0" />
        <mxCell id="1" parent="0" />
        <mxCell id="nDshbjIqcR5dqe8k5bvX-1796" style="edgeStyle=orthogonalEdgeStyle;rounded=0;orthogonalLoop=1;jettySize=auto;html=1;exitX=1;exitY=0.5;exitDx=0;exitDy=0;entryX=0;entryY=0.5;entryDx=0;entryDy=0;" edge="1" parent="1" source="1749" target="1776">
          <mxGeometry relative="1" as="geometry" />
        </mxCell>
        <mxCell id="nDshbjIqcR5dqe8k5bvX-1797" style="edgeStyle=orthogonalEdgeStyle;rounded=0;orthogonalLoop=1;jettySize=auto;html=1;" edge="1" parent="1" source="1749" target="1774">
          <mxGeometry relative="1" as="geometry" />
        </mxCell>
        <mxCell id="1749" value="Using machine learning to predict decisions of the European Court of Human Rights&lt;br&gt;(2019)" style="rounded=1;whiteSpace=wrap;html=1;shadow=0;labelBackgroundColor=none;strokeColor=none;strokeWidth=3;fillColor=#2F5B7C;fontFamily=Helvetica;fontSize=16;fontColor=#FFFFFF;align=center;fontStyle=1;spacing=5;arcSize=7;perimeterSpacing=2;" parent="1" vertex="1">
          <mxGeometry x="520" y="343" width="222.5" height="110.5" as="geometry" />
        </mxCell>
        <mxCell id="nDshbjIqcR5dqe8k5bvX-1780" style="edgeStyle=orthogonalEdgeStyle;rounded=0;orthogonalLoop=1;jettySize=auto;html=1;exitX=1;exitY=0.5;exitDx=0;exitDy=0;" edge="1" parent="1" source="1753" target="1749">
          <mxGeometry relative="1" as="geometry" />
        </mxCell>
        <mxCell id="1753" value="Predicting judicial decisions of the European Court of Human Rights: a Natural Language Processing perspective&lt;br&gt;(2016)" style="rounded=1;whiteSpace=wrap;html=1;shadow=0;labelBackgroundColor=none;strokeColor=none;strokeWidth=3;fillColor=#e85642;fontFamily=Helvetica;fontSize=14;fontColor=#FFFFFF;align=center;spacing=5;fontStyle=1;arcSize=7;perimeterSpacing=2;" parent="1" vertex="1">
          <mxGeometry x="240" y="338.75" width="200" height="119" as="geometry" />
        </mxCell>
        <mxCell id="nDshbjIqcR5dqe8k5bvX-1781" style="edgeStyle=orthogonalEdgeStyle;rounded=0;orthogonalLoop=1;jettySize=auto;html=1;exitX=1;exitY=0.5;exitDx=0;exitDy=0;entryX=0;entryY=0.5;entryDx=0;entryDy=0;" edge="1" parent="1" source="1754" target="1753">
          <mxGeometry relative="1" as="geometry">
            <Array as="points">
              <mxPoint x="200" y="343" />
              <mxPoint x="200" y="398" />
            </Array>
          </mxGeometry>
        </mxCell>
        <mxCell id="1754" value="Mathematical models for legal prediction&lt;br&gt;(1980)" style="rounded=1;whiteSpace=wrap;html=1;shadow=0;labelBackgroundColor=none;strokeColor=none;strokeWidth=3;fillColor=#f08e81;fontFamily=Helvetica;fontSize=14;fontColor=#FFFFFF;align=center;spacing=5;fontStyle=0;arcSize=7;perimeterSpacing=2;" parent="1" vertex="1">
          <mxGeometry x="-90" y="307.5" width="170" height="77" as="geometry" />
        </mxCell>
        <mxCell id="nDshbjIqcR5dqe8k5bvX-1782" style="edgeStyle=orthogonalEdgeStyle;rounded=0;orthogonalLoop=1;jettySize=auto;html=1;exitX=1;exitY=0.5;exitDx=0;exitDy=0;" edge="1" parent="1" source="1755" target="1753">
          <mxGeometry relative="1" as="geometry" />
        </mxCell>
        <mxCell id="1755" value="Predicting Supreme Court Decisions Mathematically: A Quantitative Analysis of the “Right to Counsel” Cases&lt;br&gt;(1984)" style="rounded=1;whiteSpace=wrap;html=1;shadow=0;labelBackgroundColor=none;strokeColor=none;strokeWidth=3;fillColor=#f08e81;fontFamily=Helvetica;fontSize=14;fontColor=#FFFFFF;align=center;spacing=5;fontStyle=0;arcSize=7;perimeterSpacing=2;" parent="1" vertex="1">
          <mxGeometry x="-60" y="414" width="220" height="96" as="geometry" />
        </mxCell>
        <mxCell id="1774" value="Multi-label legal document classification: A deep learning-based approach with label-attention and domain-specific pre-training&lt;br&gt;(2021)" style="rounded=1;whiteSpace=wrap;html=1;shadow=0;labelBackgroundColor=none;strokeColor=none;strokeWidth=3;fillColor=#61c6ce;fontFamily=Helvetica;fontSize=14;fontColor=#FFFFFF;align=center;spacing=5;fontStyle=0;arcSize=7;perimeterSpacing=2;" parent="1" vertex="1">
          <mxGeometry x="850" y="414" width="185" height="110" as="geometry" />
        </mxCell>
        <mxCell id="1776" value="Semi‐supervised, knowledge‐integrated pattern learning approach for fact extraction from judicial text&lt;br&gt;(2021)" style="rounded=1;whiteSpace=wrap;html=1;shadow=0;labelBackgroundColor=none;strokeColor=none;strokeWidth=3;fillColor=#61c6ce;fontFamily=Helvetica;fontSize=14;fontColor=#FFFFFF;align=center;spacing=5;fontStyle=0;arcSize=7;perimeterSpacing=2;" parent="1" vertex="1">
          <mxGeometry x="850" y="281.5" width="185" height="104.5" as="geometry" />
        </mxCell>
        <mxCell id="nDshbjIqcR5dqe8k5bvX-1785" style="edgeStyle=orthogonalEdgeStyle;rounded=0;orthogonalLoop=1;jettySize=auto;html=1;exitX=0;exitY=1;exitDx=0;exitDy=0;entryX=0.5;entryY=1;entryDx=0;entryDy=0;" edge="1" parent="1" source="nDshbjIqcR5dqe8k5bvX-1783" target="1749">
          <mxGeometry relative="1" as="geometry">
            <Array as="points">
              <mxPoint x="631" y="515" />
            </Array>
          </mxGeometry>
        </mxCell>
        <mxCell id="nDshbjIqcR5dqe8k5bvX-1783" value="&lt;b&gt;Aproximação Sucessiva&lt;/b&gt;" style="whiteSpace=wrap;html=1;shape=partialRectangle;top=0;left=0;bottom=1;right=0;points=[[0,1],[1,1]];fillColor=none;align=center;verticalAlign=bottom;routingCenterY=0.5;snapToPoint=1;recursiveResize=0;autosize=1;treeFolding=1;treeMoving=1;newEdgeStyle={&quot;edgeStyle&quot;:&quot;entityRelationEdgeStyle&quot;,&quot;startArrow&quot;:&quot;none&quot;,&quot;endArrow&quot;:&quot;none&quot;,&quot;segment&quot;:10,&quot;curved&quot;:1};" vertex="1" parent="1">
          <mxGeometry x="425" y="494.5" width="170" height="20" as="geometry" />
        </mxCell>
        <mxCell id="nDshbjIqcR5dqe8k5bvX-1784" value="" style="edgeStyle=entityRelationEdgeStyle;startArrow=none;endArrow=none;segment=10;curved=1;exitX=0.5;exitY=1;exitDx=0;exitDy=0;entryX=0;entryY=1;entryDx=0;entryDy=0;" edge="1" target="nDshbjIqcR5dqe8k5bvX-1783" parent="1" source="1753">
          <mxGeometry relative="1" as="geometry">
            <mxPoint x="40" y="720" as="sourcePoint" />
          </mxGeometry>
        </mxCell>
        <mxCell id="nDshbjIqcR5dqe8k5bvX-1786" value="&lt;b&gt;Reducionismo&lt;/b&gt;:&lt;br&gt;Utilização de Métodos Lineares nas análises jurídicas" style="ellipse;whiteSpace=wrap;html=1;align=center;newEdgeStyle={&quot;edgeStyle&quot;:&quot;entityRelationEdgeStyle&quot;,&quot;startArrow&quot;:&quot;none&quot;,&quot;endArrow&quot;:&quot;none&quot;,&quot;segment&quot;:10,&quot;curved&quot;:1};treeFolding=1;treeMoving=1;" vertex="1" parent="1">
          <mxGeometry x="120" y="200.5" width="180" height="81" as="geometry" />
        </mxCell>
        <mxCell id="nDshbjIqcR5dqe8k5bvX-1790" value="" style="endArrow=none;dashed=1;html=1;exitX=0.5;exitY=0;exitDx=0;exitDy=0;entryX=0;entryY=0.5;entryDx=0;entryDy=0;" edge="1" parent="1" source="1754" target="nDshbjIqcR5dqe8k5bvX-1786">
          <mxGeometry width="50" height="50" relative="1" as="geometry">
            <mxPoint x="-30" y="280" as="sourcePoint" />
            <mxPoint x="20" y="230" as="targetPoint" />
          </mxGeometry>
        </mxCell>
        <mxCell id="nDshbjIqcR5dqe8k5bvX-1792" value="" style="endArrow=none;dashed=1;html=1;exitX=0.569;exitY=-0.006;exitDx=0;exitDy=0;exitPerimeter=0;entryX=1;entryY=0.5;entryDx=0;entryDy=0;" edge="1" parent="1" source="1753" target="nDshbjIqcR5dqe8k5bvX-1786">
          <mxGeometry width="50" height="50" relative="1" as="geometry">
            <mxPoint x="320" y="310" as="sourcePoint" />
            <mxPoint x="370" y="260" as="targetPoint" />
          </mxGeometry>
        </mxCell>
        <mxCell id="nDshbjIqcR5dqe8k5bvX-1794" value="Nearest Neiborhood" style="text;html=1;strokeColor=none;fillColor=none;align=center;verticalAlign=middle;whiteSpace=wrap;rounded=0;rotation=-25;" vertex="1" parent="1">
          <mxGeometry x="-5" y="250" width="110" height="20" as="geometry" />
        </mxCell>
        <mxCell id="nDshbjIqcR5dqe8k5bvX-1795" value="SVM" style="text;html=1;strokeColor=none;fillColor=none;align=center;verticalAlign=middle;whiteSpace=wrap;rounded=0;rotation=60;" vertex="1" parent="1">
          <mxGeometry x="320" y="270" width="40" height="20" as="geometry" />
        </mxCell>
      </root>
    </mxGraphModel>
  </diagram>
</mxfile>
